<?xml version="1.0" encoding="utf-8"?>
<!-- Generated by Glyphs Company app at https://glyphs.co -->
<!-- Copyright Glyphs Company and respective authors. Please follow included license terms. -->
<!-- Do NOT redistribute -->
<svg class="simple-line" viewBox="0 0 30 65" xmlns="http://www.w3.org/2000/svg">
    <title>
        Temperature
    </title>
    <g stroke="#6b6c6e" class="line" stroke-width="2" fill="none" fill-rule="evenodd">
        <path d="M22.1 44.7V8.8c0-4.7-3-6.9-6.9-6.9-4 0-7 2.2-7 6.9v35.8c-2.4 2-4.1 5.2-4.1 8.6 0 6.1 5.1 10.7 11.2 10.7s10.9-4.6 10.9-10.7c-.1-3.2-1.8-6.5-4.1-8.5zM15.1 9v34.8"/>
        <path d="M21.4 49.9c.5.9.7 2 .7 3.1 0 3.8-3.1 7-7 7M25 11.9h5M25 18.9h3M25 25.9h5M25 31.9h3M25 38.9h5M0 11.9h5M2 18.9h3M0 25.9h5M2 31.9h3M0 38.9h5"/>
    </g>
</svg>